# xmcd CD database file
#
# Track frame offsets:
#	150
#	18709
#	44742
#	63302
#
# Disc length: 1190 seconds
#
# Revision: 1
# Processed by: cddbd v1.5.1PL2 Copyright (c) Steve Scherf et al.
# Submitted via: CD2WAV32(JP) R3.22
#
DISCID=3504a404
DTITLE=Suara - 夢想歌
DYEAR=2006
DGENRE=Anime
TTITLE0=夢想歌
TTITLE1=星想夜曲
TTITLE2=夢想歌 <instrumental>
TTITLE3=星想夜曲 <instrumental>
EXTD=
EXTT0=「うたわれるもの」OP
EXTT1=
EXTT2=
EXTT3=
PLAYORDER=
